<?xml version="1.0" encoding="UTF-8" standalone="no"?>
<svg
   version="1.1"
   width="1396"
   height="306.88712"
   id="svg10"
   sodipodi:docname="logo.svg"
   inkscape:version="1.4.2 (ebf0e940d0, 2025-05-08)"
   xmlns:inkscape="http://www.inkscape.org/namespaces/inkscape"
   xmlns:sodipodi="http://sodipodi.sourceforge.net/DTD/sodipodi-0.dtd"
   xmlns="http://www.w3.org/2000/svg"
   xmlns:svg="http://www.w3.org/2000/svg">
  <defs
     id="defs10" />
  <sodipodi:namedview
     id="namedview10"
     pagecolor="#ffffff"
     bordercolor="#000000"
     borderopacity="0.25"
     inkscape:showpageshadow="2"
     inkscape:pageopacity="0.0"
     inkscape:pagecheckerboard="0"
     inkscape:deskcolor="#d1d1d1"
     inkscape:zoom="0.41742778"
     inkscape:cx="803.73184"
     inkscape:cy="56.297163"
     inkscape:window-width="2648"
     inkscape:window-height="1418"
     inkscape:window-x="0"
     inkscape:window-y="0"
     inkscape:window-maximized="1"
     inkscape:current-layer="svg10" />
  <path
     d="m 186,29.39922 c 17.49,0 34.98,0 53,0 0,88.77 0,177.54 0,269 -15.51,0 -31.02,0 -47,0 -6.56369,-8.58328 -13.10982,-17.14617 -19.57422,-25.79688 -3.60434,-4.78531 -7.30696,-9.49525 -10.99194,-14.2185 -4.54891,-5.83451 -9.05122,-11.70291 -13.53614,-17.58667 -3.95339,-5.17981 -7.95001,-10.32453 -11.9602,-15.46045 -4.96569,-6.36341 -9.84969,-12.78139 -14.67993,-19.24805 -7.0303,-9.40976 -14.22094,-18.67232 -21.585695,-27.82251 -4.36594,-5.44284 -8.599523,-10.9807 -12.820068,-16.53662 -3.507347,-4.60532 -7.086157,-9.14242 -10.726807,-13.64282 -4.86961,-6.03551 -9.58484,-12.18025 -14.25,-18.375 -0.6521,-0.86214 -1.30421,-1.72428 -1.97607,-2.61255 -0.9129,-1.21853 -0.9129,-1.21853 -1.84424,-2.46167 -0.54157,-0.72147 -1.08314,-1.44294 -1.64112,-2.18628 -1.34757,-1.95619 -2.41101,-3.90198 -3.41357,-6.052 -0.66,0 -1.32,0 -2,0 0,60.06 0,120.12 0,182 -16.83,0 -33.66,0 -51,0 0,-88.44 0,-176.88 0,-268 15.84,0 31.68,0 48,0 7.48722,9.215039 14.84239,18.334876 21.89453,27.855469 5.05259,6.778499 10.293,13.413324 15.49512,20.077148 2.298573,2.95093 4.581792,5.913484 6.86035,8.879883 0.791484,1.029961 1.582969,2.059922 2.398438,3.121094 1.590514,2.074009 3.179001,4.149575 4.765625,6.226562 4.462757,5.834484 8.984627,11.613824 13.585937,17.339844 5.43217,6.75996 10.73454,13.60982 16,20.5 1.60354,2.08382 3.20772,4.16714 4.8125,6.25 2.74551,3.56612 5.48469,7.13695 8.21484,10.71484 5.62481,7.37097 11.27213,14.72253 16.97266,22.03516 4.71059,6.04492 9.40207,12.1038 14.0625,18.1875 0.524,0.68256 1.04801,1.36512 1.58789,2.06836 2.43256,3.18152 4.80714,6.38298 7.0957,9.66992 1.90601,3.09065 1.90601,3.09065 4.25391,4.07422 0,-58.74 0,-117.48 0,-178 z"
     fill="#fbfbfb"
     id="path2" />
  <path
     d="m 752.75,25.89922 c 0.77661,-0.01053 1.55322,-0.02107 2.35336,-0.03192 10.79995,-0.113216 20.53035,1.180665 30.94716,4.019364 3.31555,0.871727 6.66518,1.583481 10.01198,2.325058 20.26082,5.050699 40.83421,16.635632 54.9375,32.1875 1.18213,2.180176 1.18213,2.180176 2,4 -0.81082,0.931992 -1.62164,1.863984 -2.45703,2.824219 C 841.58922,81.527592 832.73154,91.905778 824,102.39922 c -3.62606,-0.5776 -5.19493,-1.92448 -7.75,-4.5 -9.51668,-8.718402 -22.01654,-14.684058 -34.25,-18.5 -1.22719,-0.391875 -2.45438,-0.78375 -3.71875,-1.1875 -9.96993,-2.838252 -19.92099,-3.209084 -30.21875,-3.25 -1.31533,-0.01007 -2.63065,-0.02014 -3.98584,-0.03052 -11.85,0.105844 -23.71683,1.881209 -32.86182,10.065674 -5.56987,6.007803 -7.92274,12.638166 -7.62109,20.820316 1.15341,7.33079 5.08584,13.36154 10.89917,17.88159 8.68586,5.89123 18.5761,8.86061 28.69458,11.20044 1.20398,0.28988 2.40797,0.57976 3.64844,0.87842 3.71775,0.8901 7.43977,1.75928 11.16406,2.62158 1.15452,0.26845 2.30903,0.53689 3.49854,0.81348 3.33313,0.7735 6.6671,1.54331 10.00146,2.31152 1.07411,0.24766 2.14822,0.49532 3.25488,0.75049 1.05156,0.24218 2.10311,0.48436 3.18653,0.73389 1.02109,0.23525 2.04219,0.4705 3.09424,0.71289 1.9086,0.43636 3.81836,0.86775 5.72949,1.29296 23.26994,5.18738 48.35653,13.95413 62.10986,34.82227 8.01139,13.66535 11.71592,26.9279 11.625,42.8125 -0.006,1.17514 -0.0114,2.35028 -0.0173,3.56104 -0.39845,19.53966 -7.74123,37.06929 -21.4827,51.18896 -25.80161,23.62218 -62.62224,27.40894 -96.12354,26.23096 -9.84498,-0.58656 -19.3484,-2.79219 -28.87646,-5.23096 -0.81275,-0.19755 -1.62551,-0.3951 -2.46289,-0.59863 -10.96653,-2.6928 -20.66129,-6.97219 -30.53711,-12.40137 -1.09441,-0.59039 -2.18883,-1.18078 -3.31641,-1.78906 -9.53527,-5.33391 -17.52606,-12.06312 -25.55859,-19.39844 -0.54777,-0.49911 -1.09554,-0.99822 -1.65991,-1.51245 -3.12966,-2.90366 -5.87933,-5.8836 -8.46509,-9.30005 1.33804,-3.01344 2.76804,-4.96804 5.20312,-7.17969 0.64446,-0.59272 1.28891,-1.18545 1.95289,-1.79614 0.69101,-0.62673 1.38203,-1.25345 2.09399,-1.89917 5.66065,-5.21822 11.24114,-10.49543 16.6875,-15.9375 0.59651,-0.59216 1.19303,-1.18433 1.80762,-1.79443 2.99435,-2.91807 2.99435,-2.91807 5.25488,-6.39307 3.1715,1.36703 4.87537,2.79995 7,5.5 14.43825,16.92126 37.01861,28.91768 59.13672,31.28394 5.51099,0.41586 11.03091,0.44097 16.55493,0.45629 2.10644,0.01 4.2119,0.0408 6.31812,0.0723 10.58692,0.084 20.69503,-0.83472 29.99023,-6.375 0.86625,-0.5066 1.7325,-1.0132 2.625,-1.53516 0.78375,-0.46277 1.5675,-0.92554 2.375,-1.40234 0.72187,-0.30809 1.44375,-0.61617 2.1875,-0.93359 2.31914,-1.3645 2.78981,-2.60925 3.8125,-5.06641 0.3532,-0.62777 0.70641,-1.25555 1.07031,-1.90234 3.78469,-7.30305 4.50035,-15.0382 2.04688,-22.94141 -4.32396,-9.50697 -11.1724,-13.96424 -20.73047,-17.66406 -12.4376,-4.43935 -25.6692,-6.71523 -38.5625,-9.43753 -67.14508,-14.18575 -67.14508,-14.18575 -84.57422,-40.36719 -11.17008,-18.6168 -14.50453,-40.42667 -9.6875,-61.625 5.2239,-20.471847 18.38702,-35.798903 36.1875,-46.8125 19.59692,-10.774504 39.94033,-13.598224 62,-13.75 z"
     fill="#fcfcfb"
     id="path3" />
  <path
     d="m 1070,40.39922 c 5.8978,1.965924 11.2183,3.845546 16.6875,6.625 0.6843,0.346999 1.3685,0.693999 2.0735,1.051514 32.8731,16.996538 56.6231,45.081084 67.9822,80.397706 10.4461,34.47844 6.9474,73.91849 -9.7432,105.92578 -19.0802,34.81434 -48.6658,56.87111 -86.218,68.23242 -34.4094,9.49391 -69.95825,2.38831 -100.782,-14.23242 -7.54596,-4.33492 -14.36288,-9.38478 -21,-15 -1.21816,-1.01514 -1.21816,-1.01514 -2.46094,-2.05078 -15.6868,-13.5342 -25.80453,-30.3548 -34.53906,-48.94922 -0.77537,-1.64549 -0.77537,-1.64549 -1.56641,-3.32422 -1.80436,-4.62644 -2.94585,-9.28111 -4.05859,-14.11328 -0.32484,-1.35448 -0.32484,-1.35448 -0.65625,-2.73633 -5.44111,-23.1919 -5.02892,-50.13358 2.28125,-72.82617 0.33693,-1.08934 0.33693,-1.08934 0.68066,-2.20068 4.92713,-15.59541 13.28638,-29.008886 23.31934,-41.79932 0.66,-0.99 1.32,-1.98 2,-3 0.66,0 1.32,0 2,0 0,-0.66 0,-1.32 0,-2 -11.22,-0.33 -22.44,-0.66 -34,-1 19.19205,-19.192052 51.6629,-30.262466 77.5,-36.5 0.99532,-0.240491 0.99532,-0.240491 2.01074,-0.48584 4.22887,-0.937932 8.17301,-1.063062 12.48926,-1.01416 1.14766,31.834232 -1.94025,61.93869 -9,93 -2.80405,-2.66656 -4.36376,-5.30356 -6.13672,-8.76172 -0.57685,-1.11826 -1.15371,-2.23652 -1.74805,-3.38867 -0.5949,-1.16725 -1.1898,-2.33449 -1.80273,-3.53711 -0.61211,-1.19103 -1.22473,-2.38178 -1.83789,-3.57227 -1.49666,-2.91083 -2.98796,-5.82428 -4.47461,-8.74023 -12.51158,12.18688 -19.61166,26.9801 -23,44 -0.16983,0.74145 -0.33967,1.48291 -0.51465,2.24683 -4.43524,25.15905 0.75739,50.43965 14.51465,71.75317 3.30204,4.693 7.01064,8.88363 11,13 0.7773,0.80566 1.55461,1.61133 2.35547,2.44141 10.24134,9.86394 23.06473,17.42415 36.64453,21.55859 1.4695,0.47566 1.4695,0.47566 2.9687,0.96094 25.0728,6.76467 50.8027,1.5384 73.129,-10.65235 6.6518,-4.03225 12.3622,-8.86754 17.9023,-14.30859 0.7618,-0.73734 1.5237,-1.47469 2.3086,-2.23438 16.5965,-17.14305 25.2711,-42.58597 24.9748,-66.13745 -0.6535,-22.996 -8.5771,-45.52907 -24.2834,-62.62817 -1.0867,-1.22397 -1.0867,-1.22397 -2.1953,-2.47266 -7.0093,-7.483534 -15.601,-13.92548 -24.8047,-18.52734 0,-14.85 0,-29.7 0,-45 z"
     fill="#fcfcfb"
     id="path4" />
  <path
     d="m 532.28833,28.71807 c 0.92732,-8.76e-4 1.85464,-0.0018 2.81006,-0.0027 3.05791,0.0042 6.11361,0.05081 9.17114,0.09787 2.12277,0.01119 4.24555,0.01973 6.36833,0.02573 5.58172,0.02289 11.1625,0.08181 16.74385,0.148224 6.69957,0.07223 13.39945,0.09973 20.0993,0.13472 10.17365,0.05814 20.34524,0.173119 30.51899,0.277267 0,16.17 0,32.34 0,49 -28.71,0 -57.42,0 -87,0 0,72.599998 0,145.199998 0,219.999998 -17.49,0 -34.98,0 -53,0 -0.22582,-28.38136 -0.40999,-56.762 -0.51812,-85.14404 -0.0515,-13.17855 -0.12181,-26.3565 -0.23628,-39.53467 -0.0997,-11.4874 -0.1642,-22.97436 -0.18649,-34.46219 -0.013,-6.08184 -0.0436,-12.16244 -0.11641,-18.24389 -0.068,-5.72787 -0.0888,-11.45398 -0.0738,-17.18222 -0.003,-2.09867 -0.0226,-4.197397 -0.061,-6.295718 -0.29048,-16.683319 -0.29048,-16.683319 3.38037,-21.536596 2.47661,-2.493356 4.98013,-4.531913 7.81168,-6.600674 1.12014,-1.195724 2.21264,-2.419298 3.25,-3.6875 2.83091,-3.313902 5.78264,-6.492317 8.77271,-9.661621 10.71261,-11.306281 10.71261,-11.306281 20.01958,-23.76236 3.44724,-4.089005 7.19362,-3.694897 12.24605,-3.569671 z"
     fill="#f9f9f8"
     id="path5" />
  <path
     d="m 1202,29.39922 c 64.02,0 128.04,0 194,0 0,16.17 0,32.34 0,49 -46.86,0 -93.72,0 -142,0 0.7485,22.8439 0.7485,22.8439 1.7117,45.67895 0.715,25.61407 0.715,25.61407 -8.2517,35.26433 -3.2359,2.96701 -6.5976,5.64981 -10.1424,8.23696 -2.9951,2.35176 -5.3242,5.03384 -7.7528,7.951 -2.2652,2.7052 -4.7334,5.13152 -7.2445,7.61095 -0.7473,0.74167 -0.7473,0.74167 -1.5098,1.49832 -1.5593,1.54735 -3.122,3.09133 -4.6855,4.63449 -2.0836,2.05702 -4.1639,4.11734 -6.2422,6.17969 -0.9138,0.90218 -1.8276,1.80436 -2.769,2.73388 -2.1433,2.0248 -2.1433,2.0248 -3.1138,4.21143 -0.66,0 -1.32,0 -2,0 0,-57.09 0,-114.18 0,-173 z"
     fill="#fbfbfb"
     id="path6" />
  <path
     d="m 295,29.39922 c 17.16,0 34.32,0 52,0 1,1 1,1 1.1242,2.842622 -3.8e-4,0.813741 -7.6e-4,1.627482 -0.001,2.465881 0.002,0.935541 0.004,1.871082 0.006,2.834973 -0.004,1.559792 -0.004,1.559792 -0.009,3.151095 8.5e-4,1.095246 0.002,2.190493 0.003,3.318929 0.002,3.700545 -0.004,7.401046 -0.009,11.101588 -2.8e-4,2.640509 -1.7e-4,5.281015 4.4e-4,7.921524 5.3e-4,5.700547 -0.003,11.401082 -0.008,17.101625 -0.008,8.242121 -0.0107,16.484236 -0.012,24.726363 -0.002,13.37093 -0.009,26.74186 -0.0183,40.11279 -0.009,12.99186 -0.0163,25.98372 -0.0205,38.97559 -2.6e-4,0.80025 -5.3e-4,1.6005 -8e-4,2.425 -0.001,4.01447 -0.003,8.02893 -0.004,12.04339 -0.0104,33.32621 -0.0288,66.65242 -0.0503,99.97863 -17.49,0 -34.98,0 -53,0 0,-88.77 0,-177.54 0,-269 z"
     fill="#f9f8f8"
     id="path7" />
  <path
     d="m 1302.7539,142.42262 c 2.2291,0.0187 4.4583,0.0329 6.6875,0.0429 5.8454,0.038 11.6883,0.13614 17.5328,0.24704 7.0239,0.12066 14.0486,0.16626 21.0732,0.22453 10.6526,0.0967 21.2997,0.28839 31.9526,0.46211 0,15.84 0,31.68 0,48 -41.58,0 -83.16,0 -126,0 0,35.31 0,70.62 0,107 -17.16,0 -34.32,0 -52,0 -0.6016,-17.61668 -0.6016,-17.61668 -0.7324,-25.21679 -0.089,-5.15662 -0.1938,-10.30919 -0.3992,-15.46265 -1.2292,-31.66109 -1.2292,-31.66109 6.2099,-39.83434 2.5968,-2.32133 5.2776,-4.37074 8.1836,-6.28892 2.215,-1.52585 3.796,-3.31158 5.4568,-5.41605 5.043,-5.95635 10.7596,-11.31345 16.3111,-16.79053 5.3502,-5.28493 10.6142,-10.57864 15.5034,-16.30126 2.0407,-2.35049 4.2374,-4.51877 6.4668,-6.68946 2.9556,-2.92442 5.8352,-5.86136 8.5625,-9 0.801,-0.88941 0.801,-0.88941 1.6182,-1.79678 1.8905,-2.17314 1.8905,-2.17314 3.3238,-4.74701 7.3138,-10.81869 18.5513,-8.72048 30.2494,-8.43277 z"
     fill="#fcfcfb"
     id="path8" />
  <path
     d="m 1034.2188,1.0515598 c 5.8116,2.604042 10.1249,6.8300133 12.8412,12.5986892 1.0393,3.039073 1.1969,5.404266 1.2075,8.611348 0.01,1.173294 0.017,2.346587 0.026,3.555435 -9e-4,1.278559 -0,2.557118 -0,3.874421 0.01,1.367053 0.013,2.734104 0.02,4.10115 0.018,3.706753 0.022,7.413413 0.024,11.120203 0,2.318266 0.01,4.636509 0.011,6.954769 0.018,8.094628 0.027,16.18919 0.025,24.283839 -0,7.533942 0.02,15.067598 0.052,22.601468 0.026,6.477468 0.037,12.954848 0.036,19.432368 -5e-4,3.86461 0.01,7.72896 0.026,11.59352 0.019,3.63711 0.019,7.27372 0,10.91085 -0,1.96176 0.014,3.92351 0.031,5.88519 -0.057,8.0216 -0.9116,13.5571 -6.2308,19.84784 -5.3761,4.36652 -10.0688,6.51687 -17.2109,6.28516 -6.4538,-0.95836 -10.7902,-4.54014 -14.8516,-9.42969 -2.7249,-4.1741 -3.4783,-7.83457 -3.5007,-12.77925 -0.01,-1.18171 -0.02,-2.36341 -0.03,-3.58093 -7e-4,-1.28791 -0,-2.57582 -0,-3.90276 -0.01,-1.3769 -0.016,-2.75381 -0.025,-4.1307 -0.022,-3.73361 -0.031,-7.46712 -0.036,-11.20078 -0,-2.33502 -0.01,-4.67002 -0.017,-7.00502 -0.024,-8.15298 -0.037,-16.3059 -0.041,-24.458907 -0,-7.588531 -0.034,-15.176657 -0.075,-22.765064 -0.035,-6.524177 -0.05,-13.048221 -0.051,-19.57249 -8e-4,-3.892624 -0.01,-7.784835 -0.038,-11.677363 -0.026,-3.663448 -0.028,-7.326143 -0.012,-10.989642 0,-1.976093 -0.019,-3.952172 -0.042,-5.928135 0.067,-8.212811 1.2809,-13.528431 7.1579,-19.3999832 6.2632,-5.51088941 12.5754,-7.2257912 20.7051,-4.835536 z"
     fill="#fcfcfb"
     id="path9" />
  <path
     d="m 390,29.39922 c 36.96,0 73.92,0 112,0 0,2 0,2 -1.9375,4 -0.46277,0.446015 -0.92555,0.892031 -1.40234,1.351562 -6.58809,6.541579 -12.50375,13.777567 -18.55591,20.811036 -4.53118,5.237701 -9.20746,10.326863 -13.96656,15.35791 -2.27283,2.41266 -4.29404,4.714022 -6.13769,7.479492 -2.89798,0.360764 -2.89798,0.360764 -6.65283,0.340576 -0.68304,4.38e-4 -1.36609,8.76e-4 -2.06983,0.0013 -2.262,-0.0021 -4.52327,-0.02545 -6.78515,-0.04894 -1.56656,-0.0056 -3.13312,-0.0099 -4.69968,-0.01286 -4.12654,-0.01146 -8.25276,-0.04094 -12.37918,-0.07411 -4.94921,-0.03606 -9.89852,-0.04985 -14.84782,-0.06736 -7.52206,-0.02908 -15.04342,-0.08656 -22.56551,-0.138606 0,-16.17 0,-32.34 0,-49 z"
     fill="#f9f9f8"
     id="path10" />
</svg>
